<svg width="16" height="16" viewBox="0 0 16 16" fill="none" xmlns="http://www.w3.org/2000/svg">
<path d="M14.7361 14.7367C14.3843 15.0878 13.8566 15.0878 13.5047 14.7367L10.778 12.0158C8.40318 13.7712 5.14875 13.6834 2.94981 11.6647C0.486994 9.38268 0.311079 5.34523 2.68593 2.88766C5.06079 0.430079 9.01888 0.342308 11.4817 2.79989C13.6806 4.99415 13.8566 8.4172 12.0094 10.787L14.7361 13.5079C15.088 13.859 15.088 14.3856 14.7361 14.7367ZM10.6021 4.5553C8.84297 2.09772 5.2367 2.09772 3.47755 4.5553C2.3341 6.0474 2.3341 8.24166 3.47755 9.73376C5.2367 12.1913 8.84297 12.1913 10.6021 9.73376C11.7456 8.15389 11.7456 6.0474 10.6021 4.5553Z" fill="#9CA3AE"/>
</svg>
