<svg width="30" height="30" viewBox="0 0 30 30" fill="none" xmlns="http://www.w3.org/2000/svg">
<path d="M20.7018 22C20.8291 22.0005 20.9553 21.9763 21.073 21.9285C21.1907 21.8808 21.2977 21.8105 21.3877 21.7218L23.7135 19.4398C24.0934 19.0665 24.0957 18.4598 23.7192 18.0837C23.6298 17.9944 23.5233 17.9234 23.406 17.8747C23.2887 17.8261 23.1627 17.8007 23.0354 17.8002C22.9081 17.7997 22.7819 17.824 22.6642 17.8717C22.5464 17.9194 22.4394 17.9895 22.3493 18.0781L21.6316 18.7818V8.93333C21.6317 8.69786 21.5414 8.47107 21.3789 8.29841C21.2164 8.12575 20.9936 8.01999 20.7553 8.00233L20.6843 8C20.433 8 20.192 8.09833 20.0144 8.27337C19.8367 8.4484 19.7369 8.6858 19.7369 8.93333V21.0666C19.7369 21.19 19.7617 21.3121 19.8099 21.426C19.8581 21.5398 19.9287 21.6431 20.0177 21.7299C20.1067 21.8167 20.2122 21.8853 20.3283 21.9316C20.4443 21.978 20.5685 22.0012 20.6937 22H20.7018ZM17.3685 10.5667C17.6197 10.5667 17.8607 10.4683 18.0383 10.2933C18.216 10.1183 18.3158 9.88086 18.3158 9.63333C18.3158 9.38579 18.216 9.1484 18.0383 8.97336C17.8607 8.79833 17.6197 8.7 17.3685 8.7H6.94737C6.69611 8.7 6.45515 8.79833 6.27748 8.97336C6.09981 9.1484 6 9.38579 6 9.63333C6 9.88086 6.09981 10.1183 6.27748 10.2933C6.45515 10.4683 6.69611 10.5667 6.94737 10.5667H17.3685ZM17.3685 16.1666C17.6197 16.1666 17.8607 16.0683 18.0383 15.8933C18.216 15.7182 18.3158 15.4808 18.3158 15.2333C18.3158 14.9858 18.216 14.7484 18.0383 14.5733C17.8607 14.3983 17.6197 14.3 17.3685 14.3H6.94737C6.69611 14.3 6.45515 14.3983 6.27748 14.5733C6.09981 14.7484 6 14.9858 6 15.2333C6 15.4808 6.09981 15.7182 6.27748 15.8933C6.45515 16.0683 6.69611 16.1666 6.94737 16.1666H17.3685ZM17.3685 21.7666C17.4929 21.7666 17.6161 21.7425 17.731 21.6956C17.8459 21.6487 17.9504 21.5799 18.0383 21.4933C18.1263 21.4066 18.1961 21.3037 18.2437 21.1905C18.2913 21.0772 18.3158 20.9559 18.3158 20.8333C18.3158 20.7107 18.2913 20.5894 18.2437 20.4761C18.1961 20.3629 18.1263 20.26 18.0383 20.1733C17.9504 20.0867 17.8459 20.0179 17.731 19.971C17.6161 19.9241 17.4929 19.9 17.3685 19.9H6.94737C6.82296 19.9 6.69977 19.9241 6.58483 19.971C6.46989 20.0179 6.36545 20.0867 6.27748 20.1733C6.18951 20.26 6.11972 20.3629 6.07211 20.4761C6.0245 20.5894 6 20.7107 6 20.8333C6 20.9559 6.0245 21.0772 6.07211 21.1905C6.11972 21.3037 6.18951 21.4066 6.27748 21.4933C6.36545 21.5799 6.46989 21.6487 6.58483 21.6956C6.69977 21.7425 6.82296 21.7666 6.94737 21.7666H17.3685Z" fill="#555555"/>
</svg>
