<svg width="20" height="20" viewBox="0 0 20 20" fill="none" xmlns="http://www.w3.org/2000/svg">
<path d="M15 1H5C2.79086 1 1 2.79086 1 5V15C1 17.2091 2.79086 19 5 19H15C17.2091 19 19 17.2091 19 15V5C19 2.79086 17.2091 1 15 1Z" fill="#3679FF"/>
<path d="M5.70743 10.5358C5.51989 10.3483 5.41454 10.0939 5.41453 9.82868C5.41453 9.56346 5.51989 9.30911 5.70743 9.12157C5.89496 8.93404 6.14932 8.82868 6.41453 8.82868C6.67975 8.82868 6.93411 8.93404 7.12164 9.12157L8.70698 10.7069L12.4143 6.99955C12.6019 6.81201 12.8562 6.70665 13.1214 6.70665C13.3867 6.70665 13.641 6.81201 13.8285 6.99955C14.0161 7.18708 14.1214 7.44144 14.1214 7.70665C14.1214 7.97187 14.0161 8.22622 13.8285 8.41376L9.58591 12.6564C9.47244 12.7698 9.33335 12.8543 9.18037 12.9027C9.0274 12.951 8.86503 12.9619 8.70698 12.9343C8.54909 12.9619 8.38689 12.9511 8.23405 12.9028C8.08121 12.8546 7.94221 12.7703 7.82875 12.6571L5.70743 10.5358Z" fill="white"/>
</svg>
