<svg width="54" height="42" viewBox="0 0 54 42" fill="none" xmlns="http://www.w3.org/2000/svg">
<rect width="54" height="42" rx="21" fill="#FFEBEA"/>
<g clip-path="url(#clip0_4691_11580)">
<path d="M20.2589 14.6923C20.7666 14.1846 21.5897 14.1846 22.0974 14.6923L33.7411 26.3359C34.2488 26.8436 34.2488 27.6667 33.7411 28.1744C33.2334 28.6821 32.4103 28.6821 31.9026 28.1744L20.2589 16.5307C19.7512 16.0231 19.7512 15.1999 20.2589 14.6923Z" fill="#FF3A3A"/>
<path d="M33.7411 14.6923C34.2488 15.1999 34.2488 16.0231 33.7411 16.5307L22.0974 28.1744C21.5897 28.6821 20.7666 28.6821 20.2589 28.1744C19.7512 27.6667 19.7512 26.8436 20.2589 26.3359L31.9026 14.6923C32.4103 14.1846 33.2334 14.1846 33.7411 14.6923Z" fill="#FF3A3A"/>
</g>
<defs>
<clipPath id="clip0_4691_11580">
<rect width="26" height="26" fill="white" transform="translate(14 8)"/>
</clipPath>
</defs>
</svg>
