<svg width="20" height="20" viewBox="0 0 20 20" fill="none" xmlns="http://www.w3.org/2000/svg">
<path d="M9.41297 11.3012C8.87939 11.2636 8.35087 11.1691 7.83566 11.0192L6.78686 13.371C6.71496 13.5321 6.58478 13.6568 6.42496 13.7175C6.26514 13.7783 6.08878 13.7702 5.93466 13.695C5.78055 13.6199 5.66131 13.4838 5.60318 13.3167C5.54504 13.1496 5.55278 12.9652 5.62468 12.804L6.63051 10.5469C5.77456 10.1262 5.01213 9.52318 4.3921 8.77644C3.93386 8.22274 3.57459 7.58741 3.33141 6.90077C3.30248 6.8181 3.2894 6.73027 3.29292 6.64231C3.29644 6.55436 3.3165 6.46799 3.35195 6.38814C3.3874 6.30829 3.43755 6.23651 3.49952 6.17692C3.5615 6.11733 3.6341 6.0711 3.71317 6.04085C3.79224 6.01059 3.87624 5.9969 3.96037 6.00059C4.04449 6.00427 4.1271 6.02526 4.20348 6.06232C4.27985 6.09938 4.3485 6.1518 4.40549 6.2166C4.46249 6.2814 4.50672 6.35732 4.53566 6.43999C4.72606 6.97556 5.00697 7.47099 5.365 7.90266C5.9549 8.55794 6.66681 9.08008 7.45691 9.43699C8.24702 9.7939 9.09861 9.97803 9.95931 9.97803C10.82 9.97803 11.6716 9.7939 12.4617 9.43699C13.2518 9.08008 13.9637 8.55794 14.5536 7.90266C14.9117 7.471 15.1926 6.97556 15.383 6.43999C15.412 6.35732 15.4562 6.2814 15.5133 6.21663C15.5704 6.15185 15.639 6.09948 15.7155 6.06247C15.7919 6.02545 15.8745 6.0045 15.9587 6.00088C16.0428 5.99725 16.1268 6.011 16.2059 6.04131C16.285 6.07163 16.3576 6.11794 16.4195 6.17759C16.4815 6.23724 16.5316 6.30907 16.567 6.38896C16.6024 6.46886 16.6224 6.55527 16.6259 6.64325C16.6293 6.73123 16.6162 6.81904 16.5872 6.90171C16.344 7.58834 15.9848 8.22368 15.5265 8.77738C15.4357 8.88764 15.3415 8.99503 15.244 9.09955L16.8121 10.7391C16.9324 10.8648 17 11.0354 17 11.2133C17 11.3911 16.9324 11.5617 16.8121 11.6874C16.6919 11.8132 16.5287 11.8838 16.3586 11.8838C16.1885 11.8838 16.0254 11.8132 15.9051 11.6874L14.2592 9.96665C13.9487 10.1893 13.6219 10.3859 13.2817 10.5546L14.2875 12.8069C14.3594 12.968 14.3672 13.1524 14.309 13.3195C14.2509 13.4866 14.1317 13.6227 13.9776 13.6979C13.8234 13.7731 13.6471 13.7812 13.4873 13.7204C13.3274 13.6596 13.1973 13.535 13.1254 13.3738L12.0802 11.0144C11.6282 11.1455 11.1658 11.2338 10.6986 11.2783V13.3308C10.6986 13.5083 10.6312 13.6785 10.5111 13.804C10.3911 13.9295 10.2283 14 10.0585 14C9.88876 14 9.72596 13.9295 9.60592 13.804C9.48589 13.6785 9.41845 13.5083 9.41845 13.3308V11.3012H9.41297Z" fill="#666666"/>
<path d="M5.00931 8.82996C5.06886 8.76769 5.13957 8.71831 5.21739 8.68461C5.29521 8.65091 5.37861 8.63356 5.46284 8.63356C5.54707 8.63356 5.63047 8.65091 5.70829 8.68461C5.78611 8.71831 5.85681 8.76769 5.91637 8.82996C5.97593 8.89223 6.02318 8.96613 6.05541 9.04749C6.08764 9.12885 6.10423 9.21605 6.10423 9.30411C6.10423 9.39217 6.08764 9.47937 6.05541 9.56073C6.02318 9.64209 5.97593 9.71604 5.91637 9.77831L4.09492 11.6827C3.97464 11.8084 3.8115 11.8791 3.64139 11.8791C3.47129 11.8791 3.30814 11.8084 3.18786 11.6827C3.06757 11.5569 3 11.3863 3 11.2085C3 11.0306 3.06757 10.8601 3.18786 10.7343L5.01022 8.82903L5.00931 8.82996Z" fill="#666666"/>
</svg>
