<svg width="20" height="20" viewBox="0 0 20 20" fill="none" xmlns="http://www.w3.org/2000/svg">
<path d="M17.998 10.5032C17.9999 10.1623 17.8632 9.91132 17.8554 9.90158C16.7714 7.83213 14.7519 6.50397 14.6679 6.45025C13.2207 5.49807 11.6484 5.01367 10.0019 5.01074V5C8.35157 5.00292 6.78125 5.48635 5.33208 6.4405C5.25003 6.4942 3.22664 7.82239 2.14656 9.89085C2.13875 9.9016 2.00008 10.1516 2.00203 10.4924H2.00008C1.99618 10.8362 2.1368 11.0891 2.14461 11.0989C3.22664 13.1683 5.2481 14.4965 5.33013 14.5502C6.77934 15.5039 8.34964 15.9863 9.99805 15.9902V16C11.6484 15.9981 13.2207 15.5136 14.6699 14.56C14.7539 14.5063 16.7734 13.1781 17.8574 11.1096C17.8652 11.0989 18.0038 10.8469 17.9999 10.5032H17.998ZM10 13.5004C8.34376 13.5004 6.99999 12.1575 6.99999 10.5002C6.99999 8.84295 8.34374 7.50011 10 7.50011C11.6582 7.50011 13 8.84295 13 10.5002C13 12.1575 11.6582 13.5004 10 13.5004Z" fill="#666666"/>
</svg>
