<svg width="20" height="20" viewBox="0 0 20 20" fill="none" xmlns="http://www.w3.org/2000/svg">
<path d="M9.86157 12.2105C9.69945 12.2105 9.56397 12.2688 9.45504 12.3852C9.34609 12.5018 9.29159 12.6466 9.29159 12.82C9.29159 12.9933 9.34609 13.1381 9.45504 13.2547C9.56398 13.3712 9.69946 13.4294 9.86157 13.4294C10.0236 13.4294 10.1592 13.3712 10.2681 13.2547C10.377 13.1381 10.4315 12.9933 10.4315 12.82C10.4315 12.6466 10.377 12.5018 10.2681 12.3852C10.1592 12.2688 10.0236 12.2105 9.86157 12.2105ZM11.2572 6.98528C11.109 6.84187 10.9316 6.73583 10.725 6.66708C10.518 6.59848 10.2945 6.56709 10.0544 6.57296C9.80835 6.57901 9.57787 6.61933 9.36285 6.69397C9.14765 6.76876 8.96051 6.86875 8.80124 6.99422C8.64197 7.11971 8.51624 7.27066 8.42404 7.44682C8.33184 7.62316 8.28577 7.81584 8.28577 8.02492C8.28577 8.17435 8.32202 8.28793 8.39473 8.36548C8.46726 8.44324 8.5875 8.48509 8.75511 8.49095C8.88923 8.49095 9.02046 8.45221 9.14906 8.37445C9.27753 8.29691 9.34185 8.1804 9.34185 8.02493C9.34185 7.86963 9.41164 7.75608 9.55141 7.68436C9.69106 7.61267 9.85026 7.57385 10.0291 7.56786C10.208 7.56196 10.3616 7.60227 10.4902 7.68883C10.6186 7.77552 10.6829 7.94133 10.6829 8.18622C10.6829 8.28794 10.6747 8.37896 10.6579 8.45963C10.6411 8.5403 10.613 8.62095 10.574 8.70162C10.5347 8.78225 10.4804 8.86741 10.4105 8.95703C10.3405 9.04667 10.2555 9.14526 10.1549 9.25282C10.0208 9.39032 9.90344 9.53819 9.80283 9.69645C9.70225 9.85487 9.61844 10.0133 9.55136 10.1714C9.48431 10.3298 9.4326 10.4792 9.3963 10.6195C9.35987 10.76 9.34179 10.8781 9.34179 10.9735C9.34179 11.159 9.39209 11.2918 9.49267 11.3724C9.59326 11.4531 9.71614 11.4934 9.8615 11.4934C10.0067 11.4934 10.1296 11.4501 10.2302 11.3635C10.3308 11.277 10.3811 11.147 10.3811 10.9735C10.3811 10.8602 10.3881 10.7555 10.4021 10.6599C10.416 10.5645 10.4482 10.4673 10.4985 10.3686C10.5488 10.2701 10.6213 10.1596 10.7164 10.037C10.8114 9.91458 10.9398 9.76965 11.102 9.60232C11.3421 9.35733 11.5028 9.12883 11.5839 8.91665C11.6649 8.70465 11.7082 8.47905 11.7138 8.23996C11.7194 7.96525 11.6817 7.72324 11.6007 7.51403C11.5197 7.30497 11.4051 7.12868 11.2572 6.98528Z" fill="#999999"/>
<path d="M9.99996 4C6.68607 4 4 6.68644 4 10C4 13.3139 6.68607 16 9.99996 16C13.3135 16 16 13.3139 16 10C16 6.68644 13.3136 4 9.99996 4ZM9.99996 15.4002C7.01772 15.4002 4.59993 12.9825 4.59993 10C4.59993 7.0178 7.01772 4.60016 9.99996 4.60016C12.9822 4.60016 15.3999 7.0178 15.3999 10C15.3999 12.9825 12.9822 15.4002 9.99996 15.4002Z" fill="#999999"/>
</svg>
