<svg width="30" height="30" viewBox="0 0 30 30" fill="none" xmlns="http://www.w3.org/2000/svg">
<path fill-rule="evenodd" clip-rule="evenodd" d="M11.1654 4.11145C10.9367 4.33514 10.7943 4.64593 10.7943 4.98889C10.7943 5.67431 11.363 6.23057 12.064 6.23057C12.2302 6.23122 12.3948 6.19941 12.5484 6.13698C12.7021 6.07455 12.8417 5.98274 12.9592 5.86683L13.7565 5.08985V11.7489C13.7565 12.4349 14.3252 12.9911 15.0257 12.9911C15.7263 12.9911 16.2949 12.4354 16.2949 11.7489L16.2949 5.08985L17.0887 5.86633C17.3278 6.10044 17.6511 6.23158 17.9879 6.23107C18.6879 6.23107 19.2566 5.67431 19.2566 4.98889C19.2569 4.82541 19.224 4.66352 19.1599 4.51281C19.0957 4.3621 19.0016 4.22562 18.883 4.11145L15.9208 1.21386C15.8034 1.09786 15.6638 1.00595 15.5102 0.943437C15.3565 0.880923 15.1919 0.849036 15.0257 0.849617C14.6892 0.849103 14.3661 0.980051 14.1271 1.21386L11.1654 4.11145ZM9.67447 11.3102C9.17581 9.56525 7.58083 8.36221 5.76599 8.36221C4.95282 8.36221 4.17297 8.68524 3.59797 9.26023C3.02298 9.83523 2.69995 10.6151 2.69995 11.4282V22.1594C2.69995 22.9725 3.02298 23.7524 3.59797 24.3274C4.17297 24.9024 4.95282 25.2254 5.76599 25.2254H24.1622C24.9754 25.2254 25.7552 24.9024 26.3302 24.3274C26.9052 23.7524 27.2283 22.9725 27.2283 22.1594V11.4282C27.2283 10.6151 26.9052 9.83523 26.3302 9.26023C25.7552 8.68524 24.9754 8.36221 24.1622 8.36221C22.3474 8.36221 20.7524 9.56525 20.2537 11.3102L19.8805 12.6163C19.7889 12.9366 19.5955 13.2183 19.3295 13.4188C19.0636 13.6193 18.7396 13.7278 18.4065 13.7278H11.5217C11.1886 13.7278 10.8646 13.6193 10.5987 13.4188C10.3327 13.2183 10.1393 12.9366 10.0477 12.6163L9.67447 11.3102ZM9.51031 17.7848C9.65405 17.6411 9.84902 17.5603 10.0523 17.5603H19.9656C20.1689 17.5603 20.3638 17.6411 20.5076 17.7848C20.6513 17.9286 20.7321 18.1235 20.7321 18.3268C20.7321 18.5301 20.6513 18.7251 20.5076 18.8688C20.3638 19.0126 20.1689 19.0933 19.9656 19.0933H10.0523C9.84902 19.0933 9.65405 19.0126 9.51031 18.8688C9.36656 18.7251 9.2858 18.5301 9.2858 18.3268C9.2858 18.1235 9.36656 17.9286 9.51031 17.7848Z" fill="white"/>
</svg>
