<svg width="14" height="14" viewBox="0 0 14 14" fill="none" xmlns="http://www.w3.org/2000/svg">
<g clip-path="url(#clip0_4694_13085)">
<path fill-rule="evenodd" clip-rule="evenodd" d="M7 0C3.13425 0 0 3.13425 0 7C0 10.8658 3.13425 14 7 14C10.8658 14 14 10.8658 14 7C14 3.13425 10.8658 0 7 0ZM7 2.625C9.41675 2.625 11.375 4.58325 11.375 7C11.375 9.41675 9.41675 11.375 7 11.375C4.58325 11.375 2.625 9.41675 2.625 7C2.625 4.58325 4.58325 2.625 7 2.625ZM6.85472 8.01974C6.53272 8.01974 6.27197 7.75898 6.27197 7.43698V5.10423C6.27197 4.78223 6.53272 4.52148 6.85472 4.52148C7.17672 4.52148 7.43747 4.78223 7.43747 5.10423V6.85423H8.60472C8.92672 6.85423 9.18747 7.11498 9.18747 7.43698C9.18747 7.75898 8.92672 8.01974 8.60472 8.01974H6.85472Z" fill="#A8BECF"/>
</g>
<defs>
<clipPath id="clip0_4694_13085">
<rect width="14" height="14" fill="white"/>
</clipPath>
</defs>
</svg>
