<svg width="40" height="40" viewBox="0 0 40 40" fill="none" xmlns="http://www.w3.org/2000/svg">
<path d="M19 7H6C5.44772 7 5 7.44772 5 8V29.5C5 30.0523 6.44772 32 7 32H19C19.5523 32 20 31.5523 20 31V8C20 7.44772 19.5523 7 19 7Z" fill="#ECC049"/>
<path d="M5 11H34C34.5304 11 35.0391 11.2107 35.4142 11.5858C35.7893 11.9609 36 12.4696 36 13V30C36 30.5304 35.7893 31.0391 35.4142 31.4142C35.0391 31.7893 34.5304 32 34 32H7C6.46957 32 5.96086 31.7893 5.58579 31.4142C5.21071 31.0391 5 30.5304 5 30V11Z" fill="#FFD659"/>
</svg>
