<svg width="40" height="40" viewBox="0 0 40 40" fill="none" xmlns="http://www.w3.org/2000/svg">
<path d="M9.4 5H26.267L32.193 10.937V31.393C32.193 32.0295 31.9401 32.64 31.4901 33.0901C31.04 33.5401 30.4295 33.793 29.793 33.793H9.4C8.76348 33.793 8.15303 33.5401 7.70294 33.0901C7.25286 32.64 7 32.0295 7 31.393V7.4C7 6.76348 7.25286 6.15303 7.70294 5.70294C8.15303 5.25286 8.76348 5 9.4 5V5Z" fill="#A8BECF"/>
<path d="M26.1949 5L32.1949 11H26.1949V5Z" fill="#D4E2EC"/>
<path d="M14.813 19.9095C14.89 18.7616 15.4124 17.6892 16.2687 16.9209C17.125 16.1526 18.2475 15.7491 19.397 15.7966C19.955 15.768 20.5132 15.8499 21.0395 16.0375C21.5658 16.225 22.0498 16.5147 22.464 16.8897C22.8781 17.2647 23.2142 17.7178 23.4529 18.223C23.6916 18.7281 23.8283 19.2755 23.855 19.8335C24.2275 19.7997 24.603 19.84 24.9597 19.9521C25.3165 20.0642 25.6476 20.246 25.9337 20.4868C26.2198 20.7277 26.4554 21.0228 26.6267 21.3552C26.7981 21.6877 26.9019 22.0508 26.932 22.4235C26.9248 23.1879 26.6184 23.919 26.0786 24.4601C25.5387 25.0013 24.8084 25.3094 24.044 25.3186H23.793L14.751 25.3946C14.0077 25.4265 13.2815 25.1649 12.7294 24.6661C12.1773 24.1673 11.8435 23.4713 11.8 22.7285C11.8122 22.3454 11.8998 21.9685 12.0579 21.6193C12.216 21.2701 12.4415 20.9555 12.7214 20.6936C13.0013 20.4317 13.3301 20.2277 13.6891 20.0931C14.048 19.9586 14.43 19.8962 14.813 19.9095Z" fill="white"/>
</svg>
