<svg width="40" height="40" viewBox="0 0 40 40" fill="none" xmlns="http://www.w3.org/2000/svg">
<path d="M9.4 5H26.267L32.193 10.937V31.393C32.193 32.0295 31.9401 32.64 31.4901 33.0901C31.04 33.5401 30.4295 33.793 29.793 33.793H9.4C8.76348 33.793 8.15303 33.5401 7.70294 33.0901C7.25286 32.64 7 32.0295 7 31.393V7.4C7 6.76348 7.25286 6.15303 7.70294 5.70294C8.15303 5.25286 8.76348 5 9.4 5V5Z" fill="#F56B6B"/>
<path d="M26.1949 5L32.1949 11H26.1949V5Z" fill="#F49898"/>
<path d="M16.01 17C17.1146 17 18.01 16.1046 18.01 15C18.01 13.8954 17.1146 13 16.01 13C14.9054 13 14.01 13.8954 14.01 15C14.01 16.1046 14.9054 17 16.01 17Z" fill="white"/>
<path d="M10.5979 26.5942H28.5979L23.175 16.9941L19.4749 22.8472L15.8999 19.2192L10.5979 26.5942Z" fill="white"/>
</svg>
