<svg width="24" height="24" viewBox="0 0 24 24" fill="none" xmlns="http://www.w3.org/2000/svg">
<path d="M14.9294 9.30841C15.1481 9.30841 15.3632 9.3249 15.5795 9.34847C14.9971 6.65944 12.0982 4.66211 8.78801 4.66211C5.08799 4.66211 2.05713 7.16142 2.05713 10.3371C2.05713 12.1695 3.06504 13.6743 4.75043 14.8432L4.0777 16.8499L6.43107 15.681C7.27258 15.8448 7.94769 16.0145 8.78801 16.0145C8.99958 16.0145 9.20876 16.0051 9.41558 15.9897C9.28483 15.5431 9.20758 15.0765 9.20758 14.5898C9.20876 11.6746 11.7333 9.30841 14.9294 9.30841ZM11.3113 7.49961C11.8201 7.49961 12.154 7.83074 12.154 8.33272C12.154 8.83235 11.8201 9.167 11.3113 9.167C10.8086 9.167 10.3022 8.83235 10.3022 8.33272C10.3022 7.82956 10.8074 7.49961 11.3113 7.49961ZM6.60104 9.167C6.0959 9.167 5.58719 8.83235 5.58719 8.33272C5.58719 7.83074 6.0959 7.49961 6.60104 7.49961C7.10618 7.49961 7.44136 7.82956 7.44136 8.33272C7.44136 8.83235 7.10618 9.167 6.60104 9.167ZM21.0743 14.5097C21.0743 11.8419 18.381 9.66781 15.3561 9.66781C12.1529 9.66781 9.6319 11.8431 9.6319 14.5097C9.6319 17.1846 12.154 19.3516 15.3561 19.3516C16.0264 19.3516 16.7027 19.1855 17.3754 19.0181L19.2213 20.0221L18.715 18.3535C20.0664 17.3472 21.0743 16.0145 21.0743 14.5097ZM13.4995 13.6743C13.1655 13.6743 12.8268 13.3443 12.8268 13.0073C12.8268 12.675 13.1655 12.3403 13.4995 12.3403C14.0106 12.3403 14.3422 12.675 14.3422 13.0073C14.3422 13.3443 14.0106 13.6743 13.4995 13.6743ZM17.2019 13.6743C16.8703 13.6743 16.5327 13.3443 16.5327 13.0073C16.5327 12.675 16.8691 12.3403 17.2019 12.3403C17.7082 12.3403 18.0446 12.675 18.0446 13.0073C18.0446 13.3443 17.7082 13.6743 17.2019 13.6743Z" fill="#00C04E"/>
</svg>
